<svg width="512" height="512" version="1.1" viewBox="0 0 135.47 135.47" xmlns="http://www.w3.org/2000/svg" xmlns:xlink="http://www.w3.org/1999/xlink">
 <defs>
  <style>.cls-1{fill:none;}.cls-2{fill:#fff;}.cls-3{fill:#fa0;}.cls-4{fill:#aaa;}.cls-5{fill:#55f;}.cls-6{fill:#5f5;}.cls-7{fill:#67cbdf;}.cls-8{fill:#f55;}.cls-9{fill:#f5f;}.cls-10{fill:#ff5;}.cls-11{fill:#444;}</style>
  <linearGradient id="linearGradient6363" x1="338.67" x2="338.67" y2="135.47" gradientUnits="userSpaceOnUse">
   <stop stop-color="#329945" offset="0"/>
   <stop stop-color="#306b3b" offset="1"/>
  </linearGradient>
 </defs>
 <g transform="translate(-270.93)">
  <circle cx="338.67" cy="67.733" r="67.733" fill="url(#linearGradient6363)" stroke-width="8.4667"/>
  <g fill="#fff">
   <path d="m313.27 42.333 25.4 8.4667 25.4-8.4667-8.4667-16.933h-33.867z"/>
   <path d="m296.33 35.983c8.4667 25.4 42.333 33.867 42.333 33.867s33.867-8.4667 42.333-33.867l-14.817 2.1167 2.1167 6.35-29.633 10.583-29.633-10.583 2.1167-6.35z"/>
   <path d="m304.8 59.267 4.2333 1e-6c12.7 12.7 29.633 16.933 29.633 16.933s16.933-4.2333 29.633-16.933c4.2333 0 4.2333-1e-6 4.2333-1e-6s-8.4666 35.983-33.867 52.917c-25.4-16.933-33.867-52.917-33.867-52.917z"/>
  </g>
 </g>
</svg>
